<mxfile host="app.diagrams.net" modified="2024-03-12T11:03:53.371Z" agent="Mozilla/5.0 (Windows NT 10.0; Win64; x64) AppleWebKit/537.36 (KHTML, like Gecko) Chrome/122.0.0.0 Safari/537.36" version="21.7.4" etag="VmzHSgFFMYyk09-Zuz9N" type="github">
  <diagram name="Page-1" id="1Jpa1P0KFEFP4I3yWMOC">
    <mxGraphModel>
      <root>
        <mxCell id="0" />
        <mxCell id="1" parent="0" />
      </root>
    </mxGraphModel>
  </diagram>
</mxfile>
